<?xml version="1.0" encoding="UTF-8" standalone="no"?>
<!-- Created with Inkscape (http://www.inkscape.org/) -->

<svg
   xmlns:dc="http://purl.org/dc/elements/1.1/"
   xmlns:cc="http://creativecommons.org/ns#"
   xmlns:rdf="http://www.w3.org/1999/02/22-rdf-syntax-ns#"
   xmlns:svg="http://www.w3.org/2000/svg"
   xmlns="http://www.w3.org/2000/svg"
   xmlns:sodipodi="http://sodipodi.sourceforge.net/DTD/sodipodi-0.dtd"
   xmlns:inkscape="http://www.inkscape.org/namespaces/inkscape"
   id="svg3004"
   version="1.1"
   inkscape:version="0.48.5 r10040"
   width="1600"
   height="1000"
   xml:space="preserve"
   sodipodi:docname="background.ai"><metadata
     id="metadata3010"><rdf:RDF><cc:Work
         rdf:about=""><dc:format>image/svg+xml</dc:format><dc:type
           rdf:resource="http://purl.org/dc/dcmitype/StillImage" /><dc:title></dc:title></cc:Work></rdf:RDF></metadata><defs
     id="defs3008"><clipPath
       clipPathUnits="userSpaceOnUse"
       id="clipPath3030"><path
         d="M 0,800 1280,800 1280,0 0,0 0,800 z"
         id="path3032" /></clipPath><clipPath
       clipPathUnits="userSpaceOnUse"
       id="clipPath3082"><path
         d="m 649.643,460.746 12.703,0 0,-8.786 -12.703,0 0,8.786 z"
         id="path3084" /></clipPath><clipPath
       clipPathUnits="userSpaceOnUse"
       id="clipPath3106"><path
         d="m 554.31,588.015 40.27,0 0,-134.145 -40.27,0 0,134.145 z"
         id="path3108" /></clipPath><clipPath
       clipPathUnits="userSpaceOnUse"
       id="clipPath3122"><path
         d="m 677.301,590.721 62.239,0 0,-44.743 -62.239,0 0,44.743 z"
         id="path3124" /></clipPath></defs><sodipodi:namedview
     pagecolor="#ffffff"
     bordercolor="#666666"
     borderopacity="1"
     objecttolerance="10"
     gridtolerance="10"
     guidetolerance="10"
     inkscape:pageopacity="0"
     inkscape:pageshadow="2"
     inkscape:window-width="1440"
     inkscape:window-height="851"
     id="namedview3006"
     showgrid="false"
     inkscape:zoom="0.215625"
     inkscape:cx="800"
     inkscape:cy="500"
     inkscape:window-x="0"
     inkscape:window-y="0"
     inkscape:window-maximized="1"
     inkscape:current-layer="g3012" /><g
     id="g3012"
     inkscape:groupmode="layer"
     inkscape:label="background"
     transform="matrix(1.25,0,0,-1.25,0,1000)"><path
       d="m 0,0 1280,0 0,800 L 0,800 0,0 z"
       style="fill:#212937;fill-opacity:1;fill-rule:nonzero;stroke:none"
       id="path3014" /><path
       d="M 0,0 818.245,0 0,698.566 0,0 z"
       style="fill:#197f8f;fill-opacity:1;fill-rule:nonzero;stroke:none"
       id="path3016" /><g
       id="g3018"
       transform="translate(215.0487,0)"><path
         d="m 0,0 1064.951,0 0,472.96 L 0,0 z M -117.049,0 0,0 -117.049,0 z"
         style="fill:#259fb2;fill-opacity:1;fill-rule:nonzero;stroke:none"
         id="path3020" /></g></g></svg>